<svg width="50" height="50" xmlns="http://www.w3.org/2000/svg">

 <g>
  <title>background</title>
  <rect fill="none" id="canvas_background" height="402" width="582" y="-1" x="-1"/>
 </g>
 <g>
  <title>Layer 1</title>
  <path id="svg_1" fill-rule="evenodd" fill="#FFFFFF" d="m20.5,20c0,2.776 2.224,5 5,5c2.757,0 5,-1.956 5,-5s-2.243,-5 -5,-5c-2.776,0 -5,2.224 -5,5zm5,4c-2.224,0 -4,-1.776 -4,-4s1.776,-4 4,-4c2.243,0 4,1.544 4,4s-1.758,4 -4,4zm0,2.5c-3.74,0 -6.137,1.393 -7.588,3.185c-1.435,1.771 -1.912,3.889 -1.912,5.315l0,0.5l19,0l0,-0.5c0,-1.426 -0.477,-3.543 -1.911,-5.315c-1.452,-1.792 -3.85,-3.185 -7.589,-3.185zm6.811,3.815c1.106,1.364 1.568,2.973 1.668,4.185l-16.959,0c0.1,-1.212 0.562,-2.82 1.667,-4.185c1.251,-1.541 3.353,-2.815 6.813,-2.815s5.563,1.274 6.811,2.815z" clip-rule="evenodd"/>
 </g>
</svg>