<?xml version="1.0" encoding="UTF-8"?> <svg xmlns="http://www.w3.org/2000/svg" width="107" height="64" viewBox="0 0 107 64" fill="none"> <path d="M4.09703 53.8041C3.90916 53.5465 3.8696 53.252 3.96849 52.9575C3.98826 52.9115 4.00804 52.8563 4.02782 52.8011C4.1267 52.4698 4.23547 52.1294 4.33435 51.7797C4.50246 51.2368 4.67055 50.703 4.86832 50.1509C5.0562 49.5252 5.24407 48.8994 5.45173 48.2553L6.01536 46.4609C6.12413 46.0836 6.24279 45.7063 6.37134 45.3291C6.37134 45.2831 6.39112 45.237 6.39112 45.2002C6.41089 45.1726 6.41089 45.1542 6.43067 45.1266C6.69765 44.4549 7.44916 43.9304 8.37866 43.8015C8.48743 43.7831 8.60609 43.7831 8.73464 43.7739H8.88296C9.01151 43.7923 9.13017 43.7923 9.23894 43.8015C10.1882 43.9304 10.9397 44.4733 11.2067 45.1726C11.2265 45.2002 11.2265 45.2278 11.2463 45.2646C11.2463 45.2923 11.2463 45.3107 11.266 45.3199V45.3383C11.3056 45.4855 11.3649 45.6419 11.3946 45.7892C11.5627 46.3321 11.7308 46.8842 11.9088 47.4179C12.1164 48.0437 12.3043 48.6878 12.4922 49.3135C12.6801 49.9117 12.8679 50.5098 13.0558 51.1079C13.2041 51.5588 13.3426 52.0097 13.4711 52.4514C13.5305 52.6263 13.5898 52.8011 13.6392 52.9759C13.7381 53.2704 13.6986 53.5557 13.5107 53.8225C13.3228 54.071 13.0163 54.2458 12.6603 54.3194C12.3043 54.3931 11.8989 54.3654 11.5825 54.2182C11.2562 54.071 11.0188 53.8409 10.92 53.5649C10.9002 53.5097 10.8804 53.4452 10.8606 53.3992C10.7617 53.068 10.653 52.7183 10.5541 52.3778C10.386 51.8349 10.2179 51.2828 10.0399 50.749C9.83224 50.1233 9.64436 49.4792 9.43671 48.8534C9.24883 48.2553 9.06095 47.6572 8.88296 47.059C8.84341 46.967 8.82364 46.8658 8.78408 46.783C8.65554 47.1879 8.53687 47.602 8.40833 48.0069C8.20067 48.6326 8.0128 49.2583 7.82492 49.9025L7.26129 51.6969C7.11296 52.1478 6.97452 52.5895 6.84598 53.0404C6.78665 53.2152 6.73721 53.39 6.67788 53.5649C6.57899 53.8409 6.33179 54.071 6.03514 54.2182C5.68905 54.3654 5.29351 54.3931 4.93754 54.3194C4.59145 54.2274 4.28491 54.0526 4.09703 53.8041Z" 



fill="#ffffff"></path> <path d="M20.9772 50.9794C20.5619 51.4487 20.1269 51.9088 19.7115 52.3781C19.405 52.7094 19.1084 53.0498 18.782 53.3811C18.6733 53.5099 18.5546 53.6296 18.436 53.7584C18.3074 53.9148 18.1492 54.0529 17.9218 54.1541C17.8031 54.1817 17.6943 54.2277 17.5757 54.2553C17.3285 54.3105 17.0813 54.3105 16.834 54.2553C16.2309 54.1265 15.7958 53.6848 15.7958 53.2063V53.1511V52.2769V50.6757V48.7525V46.8753V45.4582V44.9061C15.7958 44.3079 16.4385 43.811 17.2197 43.811C17.9811 43.811 18.6238 44.3079 18.6238 44.9061V44.9613V45.8355V47.4366V49.3782V49.7739C18.9501 49.4243 19.2666 49.0746 19.5929 48.7249C20.0873 48.2004 20.5619 47.6575 21.0564 47.133C21.4717 46.6637 21.9067 46.1851 22.3221 45.7158C22.6286 45.3846 22.9252 45.0625 23.2318 44.722C23.3702 44.5932 23.479 44.4552 23.5877 44.3263C23.6965 44.1699 23.8745 44.0319 24.1019 43.9491C24.2107 43.903 24.3096 43.8754 24.4283 43.8294C24.6952 43.7834 24.9424 43.7834 25.1897 43.8294C25.7928 43.9583 26.2279 44.4 26.2279 44.8785V44.9521V45.8447V47.4458V49.3874V51.2555V52.6726V53.2247C26.2279 53.8228 25.5852 54.3197 24.804 54.3197C24.0426 54.3197 23.3999 53.8228 23.3999 53.2247V53.1511V52.2677V50.6665V48.7341V48.3384C23.0736 48.6881 22.7571 49.0378 22.4308 49.3874C21.9463 49.9212 21.4717 50.4457 20.9772 50.9794Z"

fill="white"></path> <path d="M28.314 53.2519V53.1691V52.2397V50.6201V48.6785V46.8105V45.4118V44.8597C28.314 44.2616 28.9567 43.7646 29.7181 43.7646C30.4894 43.7646 31.142 44.2616 31.142 44.8597V44.9517V45.8811V47.5007V48.0436H31.6562H34.1382H34.7018V46.8197V45.421V44.8689C34.7018 44.2708 35.3445 43.7739 36.1059 43.7739C36.8772 43.7739 37.5299 44.2708 37.5299 44.8689V44.9609V45.8903V47.5099V49.4515V51.3195V52.7182V53.2703C37.5299 53.8685 36.8871 54.3654 36.1059 54.3654C35.3445 54.3654 34.7018 53.8685 34.7018 53.2703V53.1875V52.2581V50.6386V50.2337H33.624H31.142V51.3287V52.7274V53.2795C31.142 53.8777 30.4993 54.3746 29.7181 54.3746C28.9567 54.347 28.314 53.8501 28.314 53.2519Z"

fill="white"></path> <path d="M40.0514 52.4149C39.9525 52.2401 39.8437 52.0468 39.7646 51.8628C39.725 51.7616 39.6855 51.6419 39.6657 51.5407C39.6262 51.3383 39.5866 51.1358 39.5866 50.915C39.5866 50.3353 40.2293 49.8383 40.9907 49.8383C41.7719 49.8383 42.4147 50.3353 42.4147 50.915V51.0714C42.4542 51.1726 42.4938 51.2739 42.5234 51.3659C42.5828 51.4671 42.652 51.5591 42.7113 51.6327C42.8102 51.7064 42.8992 51.78 42.9981 51.8536C43.1068 51.9088 43.2255 51.9548 43.3442 52.0008C43.4628 52.0468 43.5914 52.056 43.7199 52.0836H44.1352C44.2638 52.056 44.3824 52.0376 44.511 52.0008C44.6198 51.9548 44.7384 51.9088 44.8472 51.8536C44.9461 51.78 45.0351 51.7064 45.1142 51.6327C45.1933 51.5591 45.2625 51.4671 45.3218 51.3659C45.3614 51.2739 45.4009 51.1726 45.4108 51.0714C45.4306 50.9702 45.4306 50.869 45.4108 50.7678C45.391 50.6665 45.3515 50.5653 45.3218 50.4641C45.2625 50.3721 45.1834 50.2892 45.1142 50.1972C45.0351 50.1236 44.9461 50.05 44.8472 49.9948C44.7384 49.9396 44.6198 49.8752 44.511 49.8383C44.3725 49.8107 44.2638 49.7831 44.1352 49.7647C44.0561 49.7647 43.9869 49.7463 43.9276 49.7463C43.7001 49.7463 43.4727 49.7003 43.2651 49.6267C42.8102 49.4427 42.4839 49.0746 42.4839 48.6513C42.4839 48.0532 43.1266 47.5747 43.9078 47.5563H44.0561C44.155 47.5378 44.2242 47.5286 44.3231 47.501C44.4121 47.4734 44.4912 47.4274 44.5703 47.3998C44.6494 47.3446 44.6989 47.2986 44.778 47.2434C44.8373 47.1882 44.8769 47.1238 44.9065 47.0501C44.9461 46.9765 44.9658 46.9029 44.9856 46.8293C45.0054 46.7557 45.0054 46.6821 44.9856 46.6084C44.9658 46.5348 44.9461 46.4612 44.9065 46.3876C44.867 46.3324 44.8274 46.2588 44.778 46.1944C44.6989 46.1391 44.6395 46.0931 44.5703 46.0471C44.4912 46.0011 44.422 45.9643 44.3231 45.9275C44.2242 45.8999 44.155 45.8815 44.0561 45.8723H43.7496C43.6507 45.8907 43.5617 45.8999 43.4628 45.9275C43.3837 45.9551 43.2947 46.0011 43.2156 46.0471C43.1563 46.0931 43.0871 46.1391 43.0277 46.1944C42.9684 46.2496 42.919 46.3232 42.8794 46.3876C42.8794 46.4152 42.8596 46.4336 42.8399 46.4612C42.741 46.7373 42.5135 46.9673 42.1971 47.1146C41.8708 47.2618 41.4753 47.2894 41.1193 47.2158C40.3777 47.0685 39.903 46.4428 40.1305 45.8723C40.2096 45.6698 40.3183 45.4674 40.4568 45.2649C40.5952 45.0717 40.7633 44.8969 40.9512 44.722C41.0501 44.63 41.1391 44.5564 41.2577 44.492C41.4456 44.3632 41.6533 44.2343 41.8807 44.1239C42.1081 44.0227 42.3553 43.9307 42.6025 43.8662C42.7311 43.8202 42.8893 43.7926 43.0376 43.7742C43.3046 43.7282 43.5716 43.7006 43.8485 43.6914C44.1155 43.6914 44.3824 43.719 44.6395 43.7466C44.7879 43.7742 44.9263 43.7926 45.0548 43.8294C45.302 43.8846 45.5493 43.9583 45.7767 44.0595C45.9052 44.1055 46.0239 44.1607 46.1327 44.2343C46.3205 44.354 46.5282 44.4644 46.7161 44.6116C46.8842 44.7404 47.0424 44.9061 47.1907 45.0625C47.2698 45.1545 47.339 45.2558 47.3984 45.357C47.4972 45.5318 47.606 45.7251 47.6851 45.9091C47.7445 46.1023 47.784 46.3048 47.8038 46.5072C47.8236 46.6269 47.8236 46.7373 47.8236 46.8569C47.784 47.0593 47.7642 47.2618 47.695 47.4642C47.6357 47.6575 47.5269 47.8415 47.428 48.0164C47.3687 48.1176 47.2995 48.2096 47.2204 48.3108C47.161 48.3844 47.0918 48.4673 47.0127 48.5409C47.2204 48.6973 47.4083 48.8905 47.5862 49.093C47.6654 49.185 47.7346 49.2678 47.7939 49.369C47.9027 49.5439 48.0016 49.7371 48.0807 49.9212C48.14 50.0224 48.1598 50.142 48.1795 50.2432C48.2389 50.4457 48.2784 50.6481 48.2784 50.8506C48.2784 51.0714 48.2389 51.2739 48.1993 51.4763C48.1795 51.5775 48.14 51.6972 48.1004 51.7984C48.0213 51.9916 47.9323 52.1757 47.8137 52.3505C47.7544 52.4517 47.695 52.5529 47.6258 52.645C47.4775 52.8014 47.3193 52.967 47.1512 53.1143C47.0721 53.2063 46.9633 53.2707 46.8644 53.3443C46.5579 53.5468 46.2414 53.74 45.8756 53.8688C45.5196 53.9977 45.1339 54.1173 44.7384 54.1633C44.4714 54.1909 44.2044 54.2185 43.9473 54.2185C43.6804 54.2369 43.4134 54.1909 43.1266 54.1633C42.7311 54.1173 42.3454 53.9977 41.9895 53.8688C41.6335 53.7492 41.3072 53.5652 41.0006 53.3627C40.9018 53.2891 40.793 53.2155 40.7139 53.1419C40.5458 52.9854 40.3777 52.8382 40.2392 52.6726C40.1898 52.5989 40.1107 52.5161 40.0514 52.4149Z" fill="white"></path> <path d="M56.1594 54.4481C55.7837 54.5677 55.3683 54.6045 54.9432 54.6414H54.4883C54.2213 54.6229 53.9543 54.5953 53.6972 54.5493C53.5687 54.5217 53.4302 54.4941 53.3017 54.4481C53.0545 54.3745 52.8073 54.3009 52.5798 54.1997C52.4711 54.1536 52.3326 54.0984 52.2239 54.0248C52.036 53.9052 51.8283 53.7948 51.6405 53.6475C51.4724 53.5187 51.3043 53.3531 51.146 53.1966C51.0669 53.1138 50.9977 53.0218 50.9186 52.9206C50.8 52.7457 50.6912 52.5709 50.6121 52.3777C50.5527 52.2764 50.5132 52.1568 50.4835 52.0556C50.4242 51.8071 50.3748 51.5495 50.3748 51.2826V50.9513V49.3042V47.4546V46.8841C50.3748 46.608 50.4143 46.3411 50.4736 46.0651C50.5527 45.7614 50.7011 45.4669 50.889 45.1909C50.9483 45.0897 51.0175 44.9976 51.1164 44.9148C51.2449 44.7584 51.4229 44.5927 51.591 44.4455C51.6899 44.3719 51.7789 44.2983 51.8976 44.2247C52.1052 44.105 52.2931 43.9762 52.5205 43.875C52.7479 43.7738 52.9754 43.7002 53.2226 43.6265C53.3511 43.5805 53.4896 43.5345 53.6379 43.5069C53.9049 43.4609 54.1719 43.4333 54.4388 43.4149C54.5872 43.3965 54.7454 43.3965 54.8937 43.3965C55.1607 43.4149 55.4277 43.4425 55.6848 43.4885C55.8133 43.5069 55.9715 43.5345 56.1001 43.5805C56.4758 43.6818 56.8615 43.8014 57.1779 43.9854C57.5042 44.1603 57.8009 44.3535 58.0481 44.602C58.2162 44.7676 58.3744 44.9056 58.5029 45.0805C58.6414 45.2553 58.7304 45.4485 58.8293 45.6234C58.9776 45.927 59.0369 46.2491 59.0765 46.5528C59.0962 46.6816 59.0962 46.8104 59.0962 46.9301V48.4484V50.344V51.2734C59.0962 51.5035 59.0369 51.7427 58.9974 51.9544C58.9578 52.0832 58.9182 52.212 58.849 52.3501C58.7106 52.6445 58.5623 52.9206 58.3151 53.169C58.1667 53.3347 58.0085 53.4911 57.8206 53.6383C57.6525 53.7672 57.4449 53.8868 57.2372 54.0156C56.901 54.2181 56.5352 54.3377 56.1594 54.4481ZM54.9333 52.4513C55.0618 52.4237 55.1805 52.3961 55.309 52.3685C55.4178 52.3224 55.5364 52.2672 55.6452 52.2212C55.7441 52.1476 55.8331 52.074 55.9122 52.0004C55.9913 51.9084 56.0605 51.8255 56.1199 51.7427C56.1594 51.6507 56.199 51.5495 56.2187 51.4483C56.2187 51.393 56.2385 51.347 56.2385 51.2918V50.9974V49.3686V47.519V46.9209C56.2385 46.8196 56.2187 46.7184 56.2187 46.6172C56.199 46.516 56.1594 46.4147 56.1199 46.3227C56.0605 46.2307 55.9913 46.1479 55.9122 46.0559C55.8331 45.9823 55.7441 45.9086 55.6452 45.8534C55.5364 45.7982 55.4178 45.7338 55.309 45.697C55.1805 45.6694 55.0618 45.6418 54.9333 45.6234C54.7849 45.605 54.6465 45.605 54.518 45.6234C54.3894 45.6418 54.251 45.6694 54.1422 45.697C54.0334 45.743 53.9148 45.7982 53.806 45.8534C53.7071 45.9086 53.6181 45.9823 53.539 46.0559C53.4599 46.1479 53.3907 46.2307 53.3314 46.3227C53.2918 46.4147 53.2522 46.516 53.2325 46.6172C53.2028 46.7552 53.2028 46.9025 53.2028 47.0497V48.6692V50.5373V51.1354C53.2028 51.2366 53.2028 51.3562 53.2226 51.4575C53.2424 51.5587 53.2819 51.6599 53.3215 51.7519C53.3808 51.8347 53.45 51.9268 53.5291 52.0096C53.6082 52.0832 53.6972 52.1568 53.7961 52.2304C53.9049 52.2764 54.0235 52.3316 54.1323 52.3777C54.251 52.4053 54.3795 52.4329 54.5081 52.4605H54.9333V52.4513Z" fill="white"></path> <path d="M61.2217 53.2521V53.1785V52.2583V50.6387V48.7155V46.8475V45.4304V44.8782C61.2217 44.2801 61.8645 43.7832 62.6457 43.7832H63.3477H65.4342C65.9483 43.7832 66.4526 43.8016 66.9668 43.8016C67.748 43.8016 68.3908 44.2801 68.3908 44.8782C68.3908 45.4764 67.748 45.9733 66.9668 45.9733H66.0571H64.4849H64.0498V47.4732V49.4148V51.2828V52.7V53.2521C64.0498 53.8502 63.4268 54.3471 62.6457 54.3471C61.8645 54.3471 61.2217 53.8502 61.2217 53.2521Z" fill="white"></path> <path d="M71.8813 54.2459C71.1001 54.2459 70.4574 53.7674 70.4574 53.1693V53.068V52.1386V50.5099V48.5682V46.7002V45.3015V44.7586C70.4574 44.1605 71.1001 43.6636 71.8813 43.6636H71.9802H74.1358C74.4226 43.6636 74.7094 43.6636 74.9862 43.6912C75.4015 43.7188 75.7971 43.7648 76.1827 43.8936C76.5585 44.0133 76.9243 44.1237 77.2408 44.2985C77.5671 44.4918 77.8637 44.6666 78.1307 44.8966C78.3779 45.1267 78.6251 45.3752 78.813 45.6512C78.9811 45.9273 79.1492 46.2217 79.2283 46.507C79.2876 46.7094 79.3272 46.9119 79.3371 47.1235C79.3569 47.2432 79.3569 47.3536 79.3569 47.4732C79.3371 47.6757 79.2975 47.8781 79.258 48.0897C79.2382 48.2094 79.1987 48.3106 79.169 48.421C79.0899 48.6143 78.9811 48.7891 78.8822 48.9731C78.8229 49.0744 78.7735 49.1664 78.6943 49.2676C78.6152 49.3504 78.546 49.4424 78.4471 49.5253C78.2988 49.6909 78.1406 49.8473 77.9725 49.9762C77.8637 50.0682 77.7648 50.1418 77.6462 50.197C77.4583 50.3258 77.2507 50.4455 77.043 50.5467C76.9145 50.6019 76.7958 50.6663 76.6672 50.7031C76.4398 50.7951 76.1926 50.8595 75.9454 50.924C75.8169 50.97 75.6586 50.9976 75.5301 51.016C75.2631 51.062 74.9961 51.0896 74.739 51.0896C74.472 51.108 74.2248 51.108 73.9579 51.108H73.2953V51.2092V52.6079V53.16C73.3052 53.7674 72.6625 54.2459 71.8813 54.2459ZM73.7799 45.8352H73.3052V47.4088V48.9363H74.1161C74.3435 48.9363 74.5709 48.9363 74.7984 48.9179C74.9665 48.8903 75.1346 48.8627 75.3126 48.8167C75.4609 48.7615 75.6191 48.6879 75.7476 48.6143C75.8762 48.5222 76.0146 48.421 76.1234 48.3198C76.2223 48.2186 76.3113 48.0989 76.3904 47.9885C76.4497 47.8597 76.4893 47.7217 76.5288 47.5928C76.5486 47.4456 76.5486 47.3168 76.5288 47.1695C76.4893 47.0407 76.4497 46.9119 76.3904 46.7739C76.3113 46.6542 76.2223 46.5438 76.1234 46.4242C76.0146 46.323 75.8762 46.2309 75.7476 46.1481C75.6092 46.0745 75.4609 46.0009 75.3126 45.9457C75.1445 45.8997 74.9763 45.8721 74.7984 45.8445C74.4622 45.826 74.1161 45.8352 73.7799 45.8352Z" fill="white"></path> <path d="M81.4738 54.2645C81.1178 54.1909 80.8113 54.016 80.6234 53.7676C80.4355 53.5007 80.396 53.2155 80.4949 52.9394C80.5146 52.8842 80.5344 52.8198 80.5344 52.7646C80.6531 52.4333 80.7618 52.0928 80.8607 51.7615C81.0288 51.2094 81.1969 50.6665 81.3749 50.1328C81.5826 49.4886 81.7704 48.8629 81.9781 48.2372C82.166 47.639 82.3341 47.0225 82.5318 46.4336C82.6604 46.0563 82.779 45.679 82.8878 45.2925C82.9076 45.2465 82.9274 45.2005 82.9274 45.1637C82.9471 45.1361 82.9471 45.1177 82.9669 45.0901C83.2339 44.4183 83.9854 43.8938 84.8951 43.7742C85.0237 43.7466 85.1424 43.7466 85.2511 43.7466H85.4192C85.5478 43.7466 85.6664 43.7466 85.7752 43.7742C86.7245 43.8938 87.476 44.4275 87.743 45.1269C87.743 45.1545 87.7627 45.1821 87.7627 45.2189C87.7825 45.2465 87.7825 45.2649 87.7825 45.2925C87.8419 45.4398 87.8814 45.5962 87.9308 45.7434C88.099 46.2955 88.2769 46.8385 88.445 47.3722C88.6329 48.0163 88.8406 48.6421 89.0285 49.2678L89.5921 51.0622C89.7206 51.5131 89.8788 51.964 90.0074 52.4057C90.0667 52.5805 90.1162 52.7738 90.1755 52.9486C90.2645 53.2247 90.2348 53.5191 90.0272 53.7768C89.8591 54.0252 89.5328 54.2001 89.1965 54.2737C88.8406 54.3565 88.4352 54.3197 88.0989 54.1725C87.7924 54.0252 87.5254 53.7952 87.4562 53.5191C87.4364 53.4639 87.4167 53.4179 87.3969 53.3627C87.298 53.0314 87.1892 52.691 87.0706 52.3413C86.9717 51.9916 86.8629 51.6327 86.7443 51.2738H86.6355H84.2326H83.9063C83.8668 51.4027 83.8272 51.5223 83.7975 51.6511C83.6492 52.102 83.5108 52.5437 83.3625 52.9946C83.3031 53.1695 83.2636 53.3443 83.2141 53.5191C83.1152 53.7952 82.868 54.0252 82.5516 54.1725C82.2253 54.3013 81.8298 54.3473 81.4738 54.2645ZM85.9433 49.0838H86.0718C86.0323 48.9825 86.0125 48.8905 85.973 48.7893C85.7851 48.1912 85.5972 47.593 85.4093 46.9949C85.3896 46.9029 85.35 46.8201 85.3302 46.7188C85.2017 47.1237 85.0632 47.5378 84.9545 47.9427C84.816 48.32 84.7073 48.6973 84.5985 49.0746H85.9433V49.0838Z" fill="white"></path> <path d="M92.3299 55.2215V54.743V53.2706C92.3299 52.7185 92.8935 52.2492 93.5956 52.194C93.6747 52.1388 93.7439 52.0652 93.823 52.0008C94.0307 51.7707 94.2186 51.5223 94.3768 51.2738C94.5053 50.9977 94.6042 50.7217 94.6833 50.4272V50.372C94.7229 50.0223 94.7031 49.6726 94.7031 49.323V47.5654V45.7434V44.8968C94.7031 44.2987 95.3458 43.8018 96.127 43.8018H96.9774H99.4H100.824C101.605 43.8018 102.248 44.2987 102.248 44.8968V44.952V45.8078V47.4089V49.3506V51.2186V52.2124C102.91 52.286 103.444 52.7369 103.444 53.2798V53.7583V55.2307C103.444 55.8288 102.802 56.3257 102.04 56.3257C101.259 56.3257 100.616 55.8288 100.616 55.2307V54.7522V54.3749H99.3506H96.8291H95.1579V55.2307C95.1579 55.8288 94.5152 56.3257 93.7538 56.3257C92.9726 56.3165 92.3299 55.8196 92.3299 55.2215ZM99.3901 52.194V50.6665V48.7432V46.866V45.9918H97.5114V47.7218V49.4426V49.9119V50.0039C97.5114 50.3076 97.4718 50.6021 97.4125 50.9057C97.3532 51.1726 97.2839 51.4118 97.185 51.6603C97.1059 51.8351 97.0169 52.0284 96.9181 52.2032H98.9452H99.3901V52.194Z" fill="white"></path> <path d="M30.5889 63.6961C30.3516 63.8894 30.0648 63.9998 29.6792 63.9998C29.2144 63.9998 28.8881 63.8342 28.6706 63.5949C28.2849 63.1808 28.2355 62.7115 28.2355 61.184C28.2355 59.6656 28.275 59.1963 28.6706 58.773C28.898 58.5338 29.2144 58.3682 29.6792 58.3682C30.0945 58.3682 30.3812 58.4786 30.6186 58.6902C30.8954 58.9387 31.0339 59.3344 31.0437 59.7761H30.3417C30.3318 59.546 30.2922 59.316 30.1538 59.1503C30.0648 59.0399 29.9165 58.9571 29.6891 58.9571C29.4616 58.9571 29.3034 59.0399 29.2045 59.1687C28.9969 59.4356 28.9672 59.8681 28.9672 61.1748C28.9672 62.4815 28.9969 62.9232 29.2045 63.1808C29.3034 63.3004 29.4616 63.3925 29.6891 63.3925C29.9165 63.3925 30.0648 63.3096 30.1538 63.1992C30.2824 63.0336 30.3318 62.7943 30.3417 62.5643H31.0437C31.024 63.0428 30.8756 63.4477 30.5889 63.6961Z" fill="white"></path> <path d="M34.1683 63.9355L33.8816 62.638H32.517L32.2401 63.9355H31.4886L32.8631 58.4419H33.5552L34.9198 63.9355H34.1683ZM33.2091 59.5093L32.6554 62.0399H33.753L33.2091 59.5093Z" fill="white"></path> <path d="M37.8654 63.9355V59.04H36.8073V61.4694C36.8073 63.7239 36.1745 63.9355 35.4329 63.9355H35.2252V63.3466H35.3043C35.7394 63.3466 36.1349 63.2361 36.1349 61.3681V58.4419H38.5872V63.9355H37.8654Z" fill="white"></path> <path d="M42.0192 63.5949C41.7819 63.8342 41.4754 63.9906 41.0106 63.9906C40.5459 63.9906 40.2295 63.825 40.002 63.5949C39.6164 63.1992 39.567 62.7115 39.567 61.184C39.567 59.6656 39.6164 59.1687 40.002 58.773C40.2295 58.5338 40.5459 58.3682 41.0106 58.3682C41.4754 58.3682 41.7918 58.5338 42.0192 58.773C42.4049 59.1687 42.4543 59.6564 42.4543 61.184C42.4444 62.7115 42.395 63.1992 42.0192 63.5949ZM41.4853 59.1779C41.3864 59.0583 41.2381 58.9663 41.0008 58.9663C40.7733 58.9663 40.6052 59.0491 40.5162 59.1779C40.3086 59.4448 40.2789 59.8773 40.2789 61.184C40.2789 62.4907 40.3086 62.9232 40.5162 63.19C40.6151 63.3096 40.7733 63.4017 41.0008 63.4017C41.2282 63.4017 41.3864 63.3188 41.4853 63.19C41.6929 62.9232 41.7325 62.4907 41.7325 61.184C41.7325 59.8865 41.6929 59.4448 41.4853 59.1779Z" fill="white"></path> <path d="M45.4504 63.9355V61.4418H44.1352V63.9355H43.4233V58.4419H44.1352V60.8436H45.4504V58.4419H46.1623V63.9355H45.4504Z" fill="white"></path> <path d="M48.6046 63.9355H47.2795V58.4419H47.9915V60.7332H48.6046C49.5044 60.7332 50.0087 61.1197 50.0087 62.3344C50.0087 63.549 49.4945 63.9355 48.6046 63.9355ZM48.6046 61.3313H48.0014V63.3466H48.6046C49.0693 63.3466 49.2968 63.0797 49.2968 62.3344C49.2968 61.5982 49.0693 61.3313 48.6046 61.3313ZM50.5526 58.4419H51.2645V63.9355H50.5526V58.4419Z" fill="white"></path> <path d="M56.3067 63.5949C56.0793 63.8342 55.7629 63.9906 55.2981 63.9906C54.8334 63.9906 54.5169 63.825 54.2895 63.5949C53.9039 63.1992 53.8544 62.7115 53.8544 61.184C53.8544 59.6656 53.9039 59.1687 54.2895 58.773C54.5169 58.5338 54.8334 58.3682 55.2981 58.3682C55.7629 58.3682 56.0793 58.5338 56.3067 58.773C56.6924 59.1687 56.7418 59.6564 56.7418 61.184C56.7319 62.7115 56.6825 63.1992 56.3067 63.5949ZM55.7728 59.1779C55.6739 59.0583 55.5255 58.9663 55.2882 58.9663C55.0608 58.9663 54.9026 59.0491 54.8037 59.1779C54.5961 59.4448 54.5664 59.8773 54.5664 61.184C54.5664 62.4907 54.5961 62.9232 54.8037 63.19C54.9026 63.3096 55.0608 63.4017 55.2882 63.4017C55.5255 63.4017 55.6739 63.3188 55.7728 63.19C55.9804 62.9232 56.02 62.4907 56.02 61.184C56.02 59.8865 55.9804 59.4448 55.7728 59.1779Z" fill="white"></path> <path d="M59.7388 63.9355V59.0308H58.4236V63.9355H57.7117V58.4419H60.4507V63.9355H59.7388Z" fill="white"></path> <path d="M62.9226 59.0308V63.9355H62.2107V59.0308H61.2119V58.4419H63.9115V59.0308H62.9226Z" fill="white"></path> <path d="M66.7792 63.9355V60.1259L65.3355 63.9355H64.673V58.4419H65.3849V62.2607L66.8385 58.4419H67.4911V63.9355H66.7792Z" fill="white"></path> <path d="M68.6087 58.4419H69.3207V63.9355H68.6087V58.4419ZM70.9423 63.9355L69.3404 61.0737L70.8237 58.4419H71.595L70.0821 61.0461L71.7433 63.9355H70.9423Z" fill="white"></path> <path d="M74.5016 63.9355V60.1259L73.0579 63.9355H72.3954V58.4419H73.1073V62.2607L74.5609 58.4419H75.2135V63.9355H74.5016Z" fill="white"></path> <path d="M66.3548 24.1274C66.2361 23.9065 66.1175 23.658 65.9988 23.4004C64.6837 24.6703 63.4773 26.2438 62.528 28.1946C64.1794 30.4859 66.4932 32.4276 70.3101 33.9551C72.9404 35.0041 76.1244 35.5931 79.5458 35.6759C78.3888 33.9827 77.6571 32.2895 77.2418 30.6608C71.9219 30.0074 68.2632 27.8174 66.3548 24.1274Z" fill="#DCE8A3"></path> <path d="M60.3724 11.2723C60.2636 11.0883 60.0263 11.0146 59.8088 11.0791C58.2662 11.5484 57.0994 12.1373 55.6557 13.2139C55.4382 13.3796 55.3887 13.6648 55.537 13.8765C56.5259 15.3304 58.6024 20.0418 58.899 20.7964C59.9868 23.557 60.9558 26.0323 62.5182 28.1948C63.4674 26.244 64.6738 24.6704 65.9889 23.4006C64.4859 20.2167 62.617 14.8795 60.3724 11.2723Z" fill="#F3BC41"></path> <path d="M27.4242 4.87778C36.0468 4.9514 43.018 7.50035 45.8955 8.58619C46.0636 8.6506 46.2614 8.6138 46.3899 8.50338C47.2403 7.78562 48.9707 6.39611 50.9978 5.11703C51.1956 4.98821 51.166 4.71215 50.9484 4.62933C48.417 3.5895 39.6955 0.341189 29.2436 0.0283203C28.0274 1.65708 27.2264 3.30424 26.7221 4.88698C26.9594 4.87778 27.1869 4.87778 27.4242 4.87778Z" fill="#F3BC41"></path> <path d="M26.732 4.88653C27.2363 3.29459 28.0373 1.65663 29.2535 0.0278737C28.5515 0.00946972 27.8395 0.000267283 27.1177 0.00946929C19.6026 0.00946929 13.8179 0.911267 9.93182 1.80386C10.3471 4.66569 11.1777 7.03061 12.2655 8.97223C14.2134 6.0828 20.7892 4.96015 26.732 4.88653Z" fill="#DCE8A3"></path> <path d="M98.5515 26.189C96.4354 26.5662 94.4973 26.6123 92.7272 26.419C92.6185 26.6031 92.4998 26.7687 92.3911 26.9067C90.1959 29.6489 86.6163 30.8728 80.7921 30.8728C79.5264 30.8728 78.3497 30.7992 77.2323 30.6611C77.6575 32.2899 78.3793 33.9831 79.5363 35.6762C79.8032 35.6854 80.0603 35.6946 80.3273 35.6946C84.1343 35.6946 88.0995 35.0597 90.6705 34.0291C94.962 32.3083 96.7913 30.4863 98.5317 26.2442C98.5416 26.2166 98.5416 26.1982 98.5515 26.189Z" fill="#46BEA9"></path> <path d="M95.4067 9.42283C96.9888 12.7448 94.7739 23.097 92.727 26.419C94.497 26.603 96.4351 26.5662 98.5512 26.1889C100.034 22.5449 101.251 17.0789 101.903 14.1343C102.111 13.2141 102.249 12.5699 102.319 12.3583C102.319 12.3491 102.329 12.3399 102.329 12.3307C102.457 12.1282 103.08 11.7417 103.624 11.5485C104.158 11.3553 104.484 10.8675 104.455 10.3522L104.029 4.54576C104 4.10406 103.703 3.71758 103.278 3.53354C103.11 3.45992 101.122 2.63174 97.4635 1.78516C97.0482 4.64698 96.2274 7.0027 95.1397 8.94433C95.2386 9.10076 95.3276 9.25719 95.4067 9.42283Z" fill="#00A6CB"></path> <path d="M61.8152 2.77026C47.9518 5.61368 44.6788 14.6409 44.303 16.0672C44.303 16.0672 42.8989 20.3093 41.4058 23.4104C42.7209 24.6803 43.9174 26.2446 44.8667 28.1954C46.429 26.033 47.408 23.5576 48.4957 20.797C48.822 19.9688 50.414 15.9015 50.4634 15.7727V15.7635C53.8156 9.04604 62.7348 6.95718 65.8002 6.32224C68.8557 5.6781 75.0952 4.87752 79.98 4.87752C80.1975 4.87752 80.425 4.87752 80.6524 4.88672C80.158 3.30398 79.357 1.67522 78.1605 0.0556641C70.507 0.451351 61.8152 2.77026 61.8152 2.77026Z" fill="#0C5275"></path> <path d="M95.1294 8.95356C96.2172 7.01194 97.0379 4.64702 97.4532 1.79439C93.5572 0.901798 87.7824 0 80.2772 0C79.585 0 78.8731 0.0184053 78.1512 0.0552134C79.3576 1.67477 80.1487 3.30353 80.6431 4.88627C86.586 4.96909 93.1617 6.07333 95.1294 8.95356Z" fill="#04629C"></path> <path d="M14.6686 26.4191C12.6316 23.088 10.4067 12.7449 11.9987 9.42298C12.0779 9.26655 12.1668 9.11932 12.2657 8.97208C11.178 7.02126 10.3474 4.66554 9.93209 1.80371C6.28332 2.64109 4.29577 3.47848 4.12767 3.54289C3.69258 3.72693 3.40582 4.11342 3.37616 4.55511L2.95096 10.3616C2.9213 10.8769 3.24761 11.3646 3.78158 11.5578C4.32543 11.7603 4.95828 12.1468 5.06705 12.3216C5.07694 12.3308 5.07695 12.34 5.07695 12.34C5.15605 12.5609 5.2846 13.1958 5.49225 14.0976C6.14488 17.0423 7.37103 22.5267 8.85427 26.1983C10.9605 26.5571 12.8986 26.6031 14.6686 26.4191Z" fill="#46BEA9"></path> <path d="M26.6035 30.8636C20.7694 30.8636 17.1898 29.6397 15.0045 26.9067C14.8957 26.7687 14.787 26.6031 14.6683 26.419C12.9082 26.6031 10.9701 26.5662 8.854 26.189C8.854 26.1982 8.86389 26.2166 8.86389 26.2258C10.5943 30.4679 12.4336 32.2899 16.735 34.0107C19.296 35.0413 23.2513 35.6762 27.0682 35.6762C27.3352 35.6762 27.5923 35.667 27.8494 35.6578C29.0063 33.9647 29.7282 32.2715 30.1534 30.6519C29.036 30.79 27.8593 30.8636 26.6035 30.8636Z" fill="#00A6CB"></path> <path d="M41.0499 24.1279C39.1315 27.8271 35.4729 30.0172 30.153 30.6614C29.7278 32.2901 29.0059 33.9833 27.849 35.6672C31.2802 35.5844 34.4643 35.0047 37.1044 33.9465C40.9015 32.4189 43.2154 30.4865 44.8766 28.1952C43.9274 26.2444 42.7309 24.68 41.4157 23.4102C41.2872 23.6586 41.1685 23.8979 41.0499 24.1279Z" fill="#04629C"></path> <mask id="mask0_406_217" style="mask-type:alpha" maskUnits="userSpaceOnUse" x="0" y="30" width="12" height="9"> <path d="M8.40911 30.606C7.42028 31.1581 2.37725 34.3788 1.19065 35.0229C-0.193708 35.7591 -0.193708 36.3112 0.300707 36.5873C0.795121 36.9553 2.87166 38.8878 5.5415 38.3357C8.31022 37.7835 9.99123 35.483 10.6834 34.4708C10.8812 34.1947 10.9801 33.9187 11.0789 33.7346C11.1778 33.6426 11.0789 33.5506 11.0789 33.4586C10.6834 33.0905 9.10129 31.6182 8.70576 30.606C8.60687 30.606 8.60687 30.606 8.40911 30.606C8.50799 30.606 8.40911 30.606 8.40911 30.606Z" fill="#46BEA9"></path> </mask> <g mask="url(#mask0_406_217)"> <path d="M11.465 30.4854H0.142944V38.8224H11.465V30.4854Z" fill="url(#paint0_linear_406_217)"></path> </g> <mask id="mask1_406_217" style="mask-type:alpha" maskUnits="userSpaceOnUse" x="95" y="30" width="12" height="9"> <path d="M98.2942 30.6979C97.7998 31.7101 96.3166 33.1825 95.9211 33.5506C95.8222 33.6426 95.8222 33.7346 95.9211 33.8266C96.0199 34.0107 96.2177 34.2867 96.3166 34.5628C97.0088 35.575 98.6898 37.8755 101.459 38.4276C104.227 38.9798 106.205 37.0473 106.699 36.6792C107.194 36.3112 107.194 35.8511 105.809 35.1149C104.623 34.4708 99.4808 31.25 98.5909 30.6979H98.492C98.3931 30.6059 98.2942 30.6059 98.2942 30.6979Z" fill="#46BEA9"></path> </mask> <g mask="url(#mask1_406_217)"> <path d="M107.39 30.4863H96.068V38.8234H107.39V30.4863Z" fill="url(#paint1_linear_406_217)"></path> </g> <defs> <linearGradient id="paint0_linear_406_217" x1="0.338234" y1="34.6397" x2="11.4607" y2="34.6397" gradientUnits="userSpaceOnUse"> <stop stop-color="#1A636C"></stop> <stop offset="1" stop-color="#46BEA9"></stop> </linearGradient> <linearGradient id="paint1_linear_406_217" x1="96.0789" y1="34.6613" x2="107.196" y2="34.6613" gradientUnits="userSpaceOnUse"> <stop stop-color="#46BEA9"></stop> <stop offset="1" stop-color="#1A636C"></stop> </linearGradient> </defs> </svg> 